# xmcd CD database file
#
# Track frame offsets:
#	150
#	42080
#	74933
#	114087
#	150390
#	188643
#	221796
#
# Disc length: 3471 seconds
#
# Revision: 0
# Processed by: cddbd v1.5.2PL0 Copyright (c) Steve Scherf et al.
# Submitted via: CDex 1.51
#
DISCID=5d0d8d07
DTITLE=Aeoliah - A Drop Of Buddha's Tears
DYEAR=2011
DGENRE=New Age
TTITLE0=Obstacle Removing Mantra
TTITLE1=Mahavira Namokar Mantra
TTITLE2=Medicine Buddha Mantra
TTITLE3=Amida Niyorai-Amitabha Mantra
TTITLE4=Tara Mantra
TTITLE5=Vajrasattva Mantra
TTITLE6=Wishfulfilling Mantra
EXTD=YEAR: 2011
EXTT0=
EXTT1=
EXTT2=
EXTT3=
EXTT4=
EXTT5=
EXTT6=
PLAYORDER=
